<?xml version="1.0" encoding="utf-8"?>
<!-- Generator: Adobe Illustrator 25.2.0, SVG Export Plug-In . SVG Version: 6.00 Build 0)  -->
<svg version="1.1" id="Layer_1" xmlns="http://www.w3.org/2000/svg" xmlns:xlink="http://www.w3.org/1999/xlink" x="0px" y="0px"
	 viewBox="0 0 500 140.6" style="enable-background:new 0 0 500 140.6;" xml:space="preserve">
<style type="text/css">
	.st0{fill-rule:evenodd;clip-rule:evenodd;fill:#F9871B;}
	.st1{fill-rule:evenodd;clip-rule:evenodd;fill:#03C4ED;}
</style>
<g>
	<g>
		<path class="st0" d="M369.2,124.7c-2.3,0-3.7,0.5-5,2.2l1.9,1.9c0.8-1.1,1.5-1.5,3.1-1.5c2.2,0,3.1,1,3.1,2.9v1.1h-3.7
			c-3.2,0-4.8,1.9-4.8,4.5c0,1.3,0.4,2.5,1.1,3.3c0.9,1,2,1.4,3.8,1.4s2.7-0.5,3.7-1.6v1.4h2.8V130C375,126.5,373,124.7,369.2,124.7
			z M372.1,134.8c0,1.1-0.2,1.8-0.6,2.3c-0.7,0.8-1.5,0.9-2.6,0.9c-1.8,0-2.6-0.8-2.6-2.2s0.9-2.2,2.5-2.2h3.3V134.8z"/>
		<path class="st0" d="M352.2,124.7c-3.6,0-5.9,2.9-5.9,7.9c0,5.9,2.8,8,6.3,8c2.5,0,3.8-0.8,5.2-2.4l-1.8-1.9
			c-1,1.1-1.8,1.6-3.4,1.6c-2.3,0-3.6-1.7-3.6-4.4h9.1v-1.4C358.2,127.7,356,124.7,352.2,124.7z M349.1,131.4c0-1,0.1-1.4,0.4-2.1
			c0.4-1.2,1.5-2,2.8-2c1.3,0,2.3,0.8,2.8,2c0.3,0.7,0.4,1.2,0.4,2.1H349.1z"/>
		<path class="st0" d="M490.1,124.7c-3.6,0-5.9,2.9-5.9,7.9c0,5.9,2.8,8,6.3,8c2.5,0,3.8-0.8,5.2-2.4l-1.8-1.9
			c-1,1.1-1.8,1.6-3.4,1.6c-2.3,0-3.6-1.7-3.6-4.4h9.1v-1.4C496.1,127.7,493.9,124.7,490.1,124.7z M487,131.4c0-1,0.1-1.4,0.4-2.1
			c0.4-1.2,1.5-2,2.8-2c1.3,0,2.3,0.8,2.8,2c0.3,0.7,0.4,1.2,0.4,2.1H487z"/>
		<path class="st0" d="M458,124.7c-2.3,0-3.7,0.5-5,2.2l1.8,1.9c0.8-1.1,1.5-1.5,3.1-1.5c2.2,0,3.1,1,3.1,2.9v1.1h-3.7
			c-3.2,0-4.8,1.9-4.8,4.5c0,1.3,0.4,2.5,1.1,3.3c0.9,1,2,1.4,3.8,1.4c1.7,0,2.7-0.5,3.7-1.6v1.4h2.8V130
			C463.8,126.5,461.9,124.7,458,124.7z M461,134.8c0,1.1-0.2,1.8-0.6,2.3c-0.7,0.8-1.5,0.9-2.6,0.9c-1.8,0-2.6-0.8-2.6-2.2
			s0.9-2.2,2.5-2.2h3.3V134.8z"/>
		<path class="st0" d="M477.4,124.7c-1.6,0-3,0.8-3.7,1.9v-1.7h-2.8v15.6h2.8V131c0-2.1,1.3-3.5,2.8-3.5c1,0,1.5,0.3,2.1,1l2.1-2.4
			C479.8,125.1,478.7,124.7,477.4,124.7z"/>
		<polygon class="st0" points="336.5,127.9 328.5,127.9 328.5,118.6 325.5,118.6 325.5,140.4 328.5,140.4 328.5,130.9 336.5,130.9 
			336.5,140.4 339.4,140.4 339.4,118.6 336.5,118.6 		"/>
		<path class="st0" d="M396.6,120.4h-2.8v4.7h-1.6v2.4h1.6v8.6c0,2.2,1.2,4.3,3.8,4.3h1.7v-2.7h-1.2c-1,0-1.5-0.7-1.5-1.8v-8.4h2.7
			v-2.4h-2.7V120.4z"/>
		<path class="st0" d="M412,124.7c-1.4,0-2.7,0.6-3.6,1.7v-7.9h-2.8v21.8h2.8v-9.5c0-2.3,1.3-3.4,2.8-3.4c1.6,0,2.8,1,2.8,3.4v9.5
			h2.8v-10C416.9,127,415.2,124.7,412,124.7z"/>
		<path class="st0" d="M440.1,121.3c2.2,0,3.5,1.5,4,3.7h3c-0.7-4.4-3.4-6.7-7-6.7c-2,0-3.8,0.8-5.2,2.3c-1.9,2.1-1.9,4.6-1.9,8.8
			c0,4.2,0,6.6,1.9,8.8c1.4,1.5,3.1,2.3,5.2,2.3c3.6,0,6.4-2.4,7-6.7h-3c-0.5,2.2-1.8,3.7-4,3.7c-1.2,0-2.2-0.5-2.9-1.3
			c-1-1.2-1.2-2.4-1.2-6.8c0-4.4,0.2-5.6,1.2-6.8C437.9,121.8,438.9,121.3,440.1,121.3z"/>
		<path class="st0" d="M384.8,135.9v-17.4H382v17.5c0,2.3,1.2,4.3,3.8,4.3h1.7v-2.7h-1.2C385.2,137.7,384.8,137.1,384.8,135.9z"/>
		<path class="st1" d="M470.3,64.6l12.8,0L463,32.9c-0.6-1-1.3-1.8-2.1-2.4c-0.8-0.6-1.8-0.9-3-0.9c-1.2,0-2.2,0.3-3,0.9
			c-0.8,0.6-1.6,1.4-2.2,2.4l-35.1,55.7h12.2L457.5,44L470.3,64.6z"/>
		<polygon class="st1" points="475.8,73.6 485.3,88.6 498.2,88.6 488.6,73.6 		"/>
		<path class="st1" d="M384.7,83.2V30h-10.2v42.6l-43.1-40.7c-0.8-0.7-1.5-1.3-2.3-1.6c-0.7-0.3-1.5-0.5-2.3-0.5c-1.7,0-3,0.5-4,1.6
			c-1,1.1-1.5,2.6-1.5,4.4v52.8h10.2V46l42.9,41.1c1.5,1.4,3.1,2.2,4.9,2.2c1.6,0,2.8-0.5,3.8-1.6C384.2,86.6,384.7,85.1,384.7,83.2
			z"/>
		<path class="st1" d="M201,38.4c-2.6-2.5-5.8-4.5-9.4-5.8c-3.6-1.4-7.6-2.1-11.9-2.1h-35.4v58.2h35.4c4.3,0,8.3-0.8,11.9-2.3
			c3.6-1.5,6.8-3.6,9.4-6.2c2.6-2.6,4.7-5.8,6.2-9.4c1.5-3.6,2.2-7.5,2.2-11.8c0-4.2-0.7-8.1-2.2-11.6
			C205.6,43.9,203.6,40.9,201,38.4z M197.3,67c-1,2.3-2.3,4.4-4,6c-1.7,1.7-3.7,3-6,4c-2.3,1-4.8,1.4-7.6,1.4h-24.7V40.6h24.7
			c2.7,0,5.3,0.5,7.6,1.4c2.3,0.9,4.3,2.2,6,3.9c1.7,1.7,3,3.6,4,6c0.9,2.3,1.4,4.8,1.4,7.6C198.7,62.1,198.2,64.6,197.3,67z"/>
		<rect x="397.7" y="30.4" class="st1" width="10.7" height="58.2"/>
		<rect x="297.8" y="30.4" class="st1" width="10.7" height="58.2"/>
		<path class="st1" d="M248.7,75.2l-27.7-44.8h-13L243,86.1c0.6,1,1.3,1.8,2.2,2.4c0.8,0.6,1.8,0.9,3,0.9c1.1,0,2.1-0.3,2.9-0.9
			c0.8-0.6,1.6-1.4,2.2-2.4l35.2-55.7h-12.3L248.7,75.2z"/>
		<path class="st1" d="M89.3,0l-5,10.6L79,0h-1.3l-5,10.6L67.4,0h-1.3L0,139.9h8.8L67.1,8.2l3.5,6.8l-59,124.8h8.8L73.3,20.3
			l3.3,6.5L23.2,139.9h8.8L79.5,32.3l55.7,107.6h1.5L81.4,28.2l3.5-7.9l61.9,119.6h1.5L86.8,15.8l3.4-7.6l68.2,131.7h1.5L90.6,0
			H89.3z M78.6,22.6l-3.3-6.7l3.4-7.6l3.5,6.8L78.6,22.6z"/>
		<rect x="448.6" y="66.5" class="st0" width="51.4" height="5.2"/>
	</g>
</g>
<rect x="52.9" y="100.1" class="st0" width="447.1" height="3.4"/>
</svg>
